<svg width="280" height="311" viewBox="0 0 280 311" fill="none" xmlns="http://www.w3.org/2000/svg">
<path fill-rule="evenodd" clip-rule="evenodd" d="M279.142 216.458V95.0263C279.142 82.9559 272.684 71.822 262.162 65.7868L156.951 5.01874C146.43 -1.01645 133.617 -1.01645 123.096 5.01874L17.8843 65.6828C7.36316 71.718 0.904633 82.8518 0.904633 95.0263V216.458C0.904633 228.529 7.36316 239.663 17.8843 245.698L123.096 306.362C133.617 312.397 146.43 312.397 156.951 306.362L262.267 245.594C272.684 239.663 279.142 228.529 279.142 216.458Z" fill="#B43052"/>
<path fill-rule="evenodd" clip-rule="evenodd" d="M140.075 292.21C137.471 292.21 134.867 291.482 132.471 290.233L27.2596 229.465C22.5719 226.76 19.6552 221.765 19.6552 216.354V95.0263C19.6552 89.6154 22.5719 84.6208 27.1554 81.9154L132.471 21.1473C134.763 19.7945 137.367 19.1702 140.075 19.1702C142.784 19.1702 145.284 19.8986 147.68 21.1473L252.995 81.9154C257.683 84.6208 260.6 89.6154 260.6 95.0263V216.458C260.6 221.869 257.683 226.864 252.995 229.569L147.68 290.337C145.284 291.482 142.68 292.21 140.075 292.21Z" fill="#FCC761"/>
<mask id="mask0_4_20" style="mask-type:alpha" maskUnits="userSpaceOnUse" x="10" y="133" width="259" height="61">
<path d="M10.6457 133.301H268.646V193.301H10.6457V133.301Z" fill="white"/>
</mask>
<g mask="url(#mask0_4_20)">
<path fill-rule="evenodd" clip-rule="evenodd" d="M10.6457 34.2317H268.646V292.232H10.6457V34.2317Z" fill="#B43052"/>
</g>
<mask id="mask1_4_20" style="mask-type:alpha" maskUnits="userSpaceOnUse" x="122" y="244" width="36" height="35">
<path d="M122 244H157.139V278.037H122V244Z" fill="white"/>
</mask>
<g mask="url(#mask1_4_20)">
<path fill-rule="evenodd" clip-rule="evenodd" d="M144.917 255.167L157.139 256.912L148.335 265.657L150.471 277.948L139.523 272.186L128.621 278.037L130.658 265.73L121.785 257.056L133.992 255.212L139.41 244L144.917 255.167Z" fill="white"/>
</g>
<path fill-rule="evenodd" clip-rule="evenodd" d="M178.87 65.8803C178.87 64.6713 178.312 63.7413 177.289 63.0903C177.103 62.9973 176.824 62.8113 176.638 62.7183C176.638 59.6494 176.545 56.4875 176.359 53.3256C175.987 46.0718 172.174 42.5378 165.013 42.4448C158.782 42.4448 152.551 42.4448 146.32 42.4448C136.183 42.4448 126.139 42.3518 116.002 42.5378C106.702 42.7238 102.982 46.6297 102.982 55.9295C102.982 58.1614 102.982 60.3934 102.982 62.7183C102.424 62.9043 101.959 63.3693 101.587 63.8343C100.936 64.3923 100.75 65.2293 100.75 66.1592C100.75 70.4371 100.75 74.715 100.75 79.0859C100.75 80.3879 101.215 81.4109 102.331 82.0618C102.61 82.2478 102.796 82.3408 103.075 82.4338C103.075 91.6406 103.075 100.754 103.075 109.961C103.075 111.263 102.889 112.751 103.54 113.867C104.935 116.099 104.656 118.517 104.749 120.935C104.842 123.911 106.795 125.957 109.771 126.05C111.91 126.143 114.049 126.143 116.188 126.05C119.257 125.957 121.21 124.19 121.303 121.121C121.396 119.819 121.582 119.354 123.07 119.354C134.23 119.447 145.483 119.447 156.643 119.354C158.038 119.354 158.41 119.726 158.41 121.121C158.503 124.376 160.456 126.05 163.711 126.05C165.571 126.05 167.431 126.05 169.291 126.05C173.104 126.05 174.964 124.097 175.057 120.284C175.057 118.796 174.592 117.122 175.429 115.727C176.452 113.867 176.731 112.007 176.731 109.961C176.731 101.312 176.731 92.6636 176.731 82.4338C177.382 82.3408 177.94 81.7829 178.312 81.2249C178.777 80.6669 178.963 79.9229 178.963 79.1789C178.87 74.808 178.87 70.3441 178.87 65.8803ZM124.279 49.1407C129.859 49.1407 135.439 49.1407 140.926 49.1407C146.32 49.1407 151.714 49.1407 157.201 49.1407C159.619 49.1407 159.898 49.5127 159.991 52.3026C159.991 55.3715 159.712 55.8365 157.387 55.8365C146.32 55.8365 135.253 55.8365 124.279 55.8365C121.861 55.8365 121.396 55.2785 121.396 52.4886C121.303 49.6987 121.768 49.1407 124.279 49.1407ZM117.304 111.077C114.049 111.077 111.352 108.38 111.352 105.125C111.445 101.963 114.142 99.3594 117.211 99.3594C120.466 99.3594 122.884 101.87 122.884 105.218C122.977 108.473 120.466 111.077 117.304 111.077ZM116.467 90.9896C112.933 90.9896 111.352 89.3157 111.352 85.6888C111.352 79.1789 111.352 72.6691 111.352 66.1592C111.352 62.5323 112.84 61.0444 116.467 61.0444C124.279 61.0444 131.998 61.0444 139.81 61.0444C147.436 61.0444 155.062 61.0444 162.688 61.0444C166.78 61.0444 168.175 62.4393 168.175 66.4382C168.175 72.6691 168.175 78.8999 168.175 85.1308C168.175 88.8507 166.129 90.8966 162.409 90.9896C147.157 90.9896 131.812 90.9896 116.467 90.9896ZM162.409 111.077C159.247 111.077 156.736 108.566 156.643 105.311C156.643 101.963 159.061 99.4524 162.316 99.4524C165.571 99.4524 168.268 102.149 168.268 105.404C168.175 108.38 165.571 111.077 162.409 111.077Z" fill="white"/>
<path d="M69.2254 147.5H75.4354L80.2504 166.355H80.3404V147.5H84.7504V179H79.6654L73.7254 156.005H73.6354V179H69.2254V147.5ZM95.5845 179.45C93.1545 179.45 91.2945 178.76 90.0045 177.38C88.7145 176 88.0695 174.05 88.0695 171.53V154.97C88.0695 152.45 88.7145 150.5 90.0045 149.12C91.2945 147.74 93.1545 147.05 95.5845 147.05C98.0145 147.05 99.8745 147.74 101.164 149.12C102.454 150.5 103.099 152.45 103.099 154.97V171.53C103.099 174.05 102.454 176 101.164 177.38C99.8745 178.76 98.0145 179.45 95.5845 179.45ZM95.5845 174.95C97.2945 174.95 98.1495 173.915 98.1495 171.845V154.655C98.1495 152.585 97.2945 151.55 95.5845 151.55C93.8745 151.55 93.0195 152.585 93.0195 154.655V171.845C93.0195 173.915 93.8745 174.95 95.5845 174.95ZM106.447 147.5H114.007C116.467 147.5 118.312 148.16 119.542 149.48C120.772 150.8 121.387 152.735 121.387 155.285V171.215C121.387 173.765 120.772 175.7 119.542 177.02C118.312 178.34 116.467 179 114.007 179H106.447V147.5ZM113.917 174.5C114.727 174.5 115.342 174.26 115.762 173.78C116.212 173.3 116.437 172.52 116.437 171.44V155.06C116.437 153.98 116.212 153.2 115.762 152.72C115.342 152.24 114.727 152 113.917 152H111.397V174.5H113.917ZM124.728 147.5H138.228V152H129.678V160.325H136.473V164.825H129.678V174.5H138.228V179H124.728V147.5ZM155.303 179.45C152.903 179.45 151.073 178.775 149.813 177.425C148.553 176.045 147.923 174.08 147.923 171.53V154.97C147.923 152.42 148.553 150.47 149.813 149.12C151.073 147.74 152.903 147.05 155.303 147.05C157.703 147.05 159.533 147.74 160.793 149.12C162.053 150.47 162.683 152.42 162.683 154.97V157.67H158.003V154.655C158.003 152.585 157.148 151.55 155.438 151.55C153.728 151.55 152.873 152.585 152.873 154.655V171.89C152.873 173.93 153.728 174.95 155.438 174.95C157.148 174.95 158.003 173.93 158.003 171.89V165.725H155.528V161.225H162.683V171.53C162.683 174.08 162.053 176.045 160.793 177.425C159.533 178.775 157.703 179.45 155.303 179.45ZM169.731 152H164.556V147.5H179.856V152H174.681V179H169.731V152ZM182.253 147.5H195.348V152H187.203V160.775H193.593V165.275H187.203V179H182.253V147.5ZM204.156 179.45C201.756 179.45 199.941 178.775 198.711 177.425C197.481 176.045 196.866 174.08 196.866 171.53V169.73H201.546V171.89C201.546 173.93 202.401 174.95 204.111 174.95C204.951 174.95 205.581 174.71 206.001 174.23C206.451 173.72 206.676 172.91 206.676 171.8C206.676 170.48 206.376 169.325 205.776 168.335C205.176 167.315 204.066 166.1 202.446 164.69C200.406 162.89 198.981 161.27 198.171 159.83C197.361 158.36 196.956 156.71 196.956 154.88C196.956 152.39 197.586 150.47 198.846 149.12C200.106 147.74 201.936 147.05 204.336 147.05C206.706 147.05 208.491 147.74 209.691 149.12C210.921 150.47 211.536 152.42 211.536 154.97V156.275H206.856V154.655C206.856 153.575 206.646 152.795 206.226 152.315C205.806 151.805 205.191 151.55 204.381 151.55C202.731 151.55 201.906 152.555 201.906 154.565C201.906 155.705 202.206 156.77 202.806 157.76C203.436 158.75 204.561 159.95 206.181 161.36C208.251 163.16 209.676 164.795 210.456 166.265C211.236 167.735 211.626 169.46 211.626 171.44C211.626 174.02 210.981 176 209.691 177.38C208.431 178.76 206.586 179.45 204.156 179.45Z" fill="white"/>
</svg>
